HIERARCHY
ROOT Hips
{
	OFFSET 0.000000 0.000000 0.000000
	CHANNELS 6 Xposition Yposition Zposition Zrotation Yrotation Xrotation 
	JOINT LHipJoint
	{
		OFFSET 0.000000 0.000000 0.000000
		CHANNELS 3 Zrotation Yrotation Xrotation
		JOINT LeftUpLeg
		{
			OFFSET 1.363060 -1.794630 0.839290
			CHANNELS 3 Zrotation Yrotation Xrotation
			JOINT LeftLeg
			{
				OFFSET 2.448110 -6.726130 0.000000
				CHANNELS 3 Zrotation Yrotation Xrotation
				JOINT LeftFoot
				{
					OFFSET 2.562200 -7.039590 0.000000
					CHANNELS 3 Zrotation Yrotation Xrotation
					JOINT LeftToeBase
					{
						OFFSET 0.157640 -0.433110 2.322550
						CHANNELS 3 Zrotation Yrotation Xrotation
						End Site
						{
							OFFSET 0.000000 0.000000 0.000000
						}
					}
				}
			}
		}
	}
	JOINT RHipJoint
	{
		OFFSET 0.000000 0.000000 0.000000
		CHANNELS 3 Zrotation Yrotation Xrotation
		JOINT RightUpLeg
		{
			OFFSET -1.305520 -1.794630 0.839290
			CHANNELS 3 Zrotation Yrotation Xrotation
			JOINT RightLeg
			{
				OFFSET -2.542530 -6.985550 0.000000
				CHANNELS 3 Zrotation Yrotation Xrotation
				JOINT RightFoot
				{
					OFFSET -2.568260 -7.056230 0.000000
					CHANNELS 3 Zrotation Yrotation Xrotation
					JOINT RightToeBase
					{
						OFFSET -0.164730 -0.452590 2.363150
						CHANNELS 3 Zrotation Yrotation Xrotation
						End Site
						{
							OFFSET 0.000000 0.000000 0.000000
						}
					}
				}
			}
		}
	}
	JOINT LowerBack
	{
		OFFSET 0.000000 0.000000 0.000000
		CHANNELS 3 Zrotation Yrotation Xrotation
		JOINT Spine
		{
			OFFSET 0.028270 2.035590 -0.193380
			CHANNELS 3 Zrotation Yrotation Xrotation
			JOINT Spine1
			{
				OFFSET 0.056720 2.048850 -0.042750
				CHANNELS 3 Zrotation Yrotation Xrotation
				JOINT Neck
				{
					OFFSET 0.000000 0.000000 0.000000
					CHANNELS 3 Zrotation Yrotation Xrotation
					JOINT Neck1
					{
						OFFSET -0.054170 1.746240 0.172020
						CHANNELS 3 Zrotation Yrotation Xrotation
						JOINT Head
						{
							OFFSET 0.104070 1.761360 -0.123970
							CHANNELS 3 Zrotation Yrotation Xrotation
							End Site
							{
								OFFSET 0.000000 0.000000 0.000000
							}
						}
					}
				}
				JOINT LeftShoulder
				{
					OFFSET 0.000000 0.000000 0.000000
					CHANNELS 3 Zrotation Yrotation Xrotation
					JOINT LeftArm
					{
						OFFSET 3.362410 1.200890 -0.311210
						CHANNELS 3 Zrotation Yrotation Xrotation
						JOINT LeftForeArm
						{
							OFFSET 4.983000 -0.000000 -0.000000
							CHANNELS 3 Zrotation Yrotation Xrotation
							JOINT LeftHand
							{
								OFFSET 3.483560 -0.000000 -0.000000
								CHANNELS 3 Zrotation Yrotation Xrotation
								JOINT LeftFingerBase
								{
									OFFSET 0.000000 0.000000 0.000000
									CHANNELS 3 Zrotation Yrotation Xrotation
									JOINT LeftHandIndex1
									{
										OFFSET 0.715260 -0.000000 -0.000000
										CHANNELS 3 Zrotation Yrotation Xrotation
										End Site
										{
											OFFSET 0.000000 0.000000 0.000000
										}
									}
								}
								JOINT LThumb
								{
									OFFSET 0.000000 0.000000 0.000000
									CHANNELS 3 Zrotation Yrotation Xrotation
									End Site
									{
										OFFSET 0.000000 0.000000 0.000000
									}
								}
							}
						}
					}
				}
				JOINT RightShoulder
				{
					OFFSET 0.000000 0.000000 0.000000
					CHANNELS 3 Zrotation Yrotation Xrotation
					JOINT RightArm
					{
						OFFSET -3.136600 1.374050 -0.404650
						CHANNELS 3 Zrotation Yrotation Xrotation
						JOINT RightForeArm
						{
							OFFSET -5.241900 -0.000000 -0.000000
							CHANNELS 3 Zrotation Yrotation Xrotation
							JOINT RightHand
							{
								OFFSET -3.444170 -0.000000 -0.000000
								CHANNELS 3 Zrotation Yrotation Xrotation
								JOINT RightFingerBase
								{
									OFFSET 0.000000 0.000000 0.000000
									CHANNELS 3 Zrotation Yrotation Xrotation
									JOINT RightHandIndex1
									{
										OFFSET -0.622530 -0.000000 -0.000000
										CHANNELS 3 Zrotation Yrotation Xrotation
										End Site
										{
											OFFSET 0.000000 0.000000 0.000000
										}
									}
								}
								JOINT RThumb
								{
									OFFSET 0.000000 0.000000 0.000000
									CHANNELS 3 Zrotation Yrotation Xrotation
									End Site
									{
										OFFSET 0.000000 0.000000 0.000000
									}
								}
							}
						}
					}
				}
			}
		}
	}
}
MOTION
Frames: 7
Frame Time: 0.008333
0.679620 17.469427 36.842109 -177.830181 6.578575 -157.374299 3.578685 -0.880649 -1.125394 -27.588927 -1.242636 -38.616411 2.790372 14.984893 40.645590 0.186170 9.858866 -29.788638 0.060800 1.591500 4.378100 -6.179279 -0.595551 0.784249 22.155902 6.185433 -47.762685 -15.094016 -21.761635 74.252127 5.966113 -22.329915 -2.790439 -0.895000 -6.029700 16.870500 -1.459315 0.098770 -4.724976 1.175829 0.212778 -5.823896 1.252040 0.385128 -0.214754 0.121536 -2.074143 -18.473480 4.508940 0.877449 17.500989 -0.551600 2.224300 15.502600 -10.564124 -8.298493 2.938387 -57.574457 2.848543 68.145189 61.880476 -53.643496 -34.079859 -1.731224 -2.689471 -28.761636 -24.818919 14.410697 -6.548300 -7.125000 0.000000 0.000000 -42.881500 42.096800 3.896600 11.882828 9.578401 4.150867 60.546123 -12.289848 52.236415 -75.229132 53.665513 -46.184633 -1.868149 3.453863 -39.845401 5.992946 9.946624 0.555800 7.125000 0.000000 0.000000 23.141900 -23.818800 12.869400 
0.676419 17.459825 36.808288 -177.666422 6.652003 -157.291933 3.564880 -0.899104 -1.124984 -27.344559 -1.571922 -38.479989 2.824563 15.029280 40.768774 0.473124 9.407713 -30.444451 0.091400 1.950100 5.367600 -6.157586 -0.551829 0.792170 21.642518 7.073313 -48.516744 -14.594413 -21.732610 73.012822 5.912347 -22.067993 -3.947567 -0.940800 -6.177900 17.301600 -1.145727 0.017375 -4.716760 1.218587 0.091108 -5.840760 1.219331 0.324186 -0.293582 -0.002140 -1.794776 -18.434077 4.435394 1.212069 17.285423 -0.570500 2.288300 15.316400 -10.480155 -8.389216 2.918486 -57.905704 2.306320 68.945169 60.219186 -53.199104 -32.410355 -1.553546 -2.633102 -27.194375 -23.268592 13.619786 -5.845100 -7.125000 0.000000 0.000000 -41.522000 41.653200 4.286600 11.859992 9.609208 4.159832 60.646408 -11.941419 51.981321 -74.338967 53.601245 -45.525243 -1.404416 3.385968 -39.890447 8.671105 5.978653 0.326100 7.125000 0.000000 0.000000 25.510300 -27.079000 12.276200 
0.678126 17.453210 36.782576 -177.500108 6.652233 -157.122157 3.554302 -0.926532 -1.141338 -27.080237 -1.795967 -38.495248 2.849129 15.063957 40.856210 0.570964 9.275230 -30.700363 0.102500 2.064500 5.683800 -6.137352 -0.497935 0.787246 21.139995 8.015089 -49.364022 -14.066852 -21.684349 71.550109 6.112133 -22.672141 -4.433148 -1.422600 -7.542600 21.333000 -0.923479 -0.098056 -4.711692 1.279672 -0.086901 -5.824180 1.308263 0.225373 -0.163600 -0.166969 -1.504984 -18.732461 4.420516 1.527568 17.033471 -0.547300 2.320200 15.201100 -10.386346 -8.492824 2.914785 -58.244083 1.388789 69.368394 58.499584 -52.682119 -30.773069 -1.496029 -2.524696 -26.009102 -22.448659 13.685264 -5.637500 -7.125000 0.000000 0.000000 -41.039100 41.748600 4.088500 11.829434 9.663460 4.182267 60.736553 -11.051165 51.698069 -72.928367 53.403340 -44.121907 -1.369419 3.340724 -39.899673 8.900628 5.541110 0.283500 7.125000 0.000000 0.000000 25.758100 -27.417100 12.189500 
0.683567 17.449689 36.762198 -177.500121 6.416051 -157.208435 3.531022 -0.939193 -1.133047 -26.958245 -1.953726 -38.297364 2.869078 15.075619 40.922260 0.572371 9.306320 -30.752276 0.082900 1.857700 5.112600 -6.089047 -0.442770 0.754080 20.656222 8.594365 -50.075181 -13.590072 -21.592087 69.937870 6.685619 -24.552461 -3.414722 -1.657800 -8.113700 23.060000 -0.863514 -0.302684 -4.277840 1.326864 -0.375383 -5.815668 1.372627 0.070233 -0.246304 -0.222760 -1.252357 -18.954560 4.414749 1.762756 16.768207 -0.548700 2.345500 15.078700 -10.296508 -8.617775 2.912229 -58.492856 0.535270 69.686839 56.672887 -52.091231 -29.146813 -1.533357 -2.432266 -24.330902 -22.739939 13.651201 -5.718300 -7.125000 0.000000 0.000000 -41.245100 41.650700 4.246300 11.788675 9.755891 4.210270 60.924371 -10.096303 51.475963 -71.306646 53.090450 -42.237422 -1.897716 3.361529 -39.760455 6.250312 10.197691 0.621900 7.125000 0.000000 0.000000 23.323300 -23.534800 13.158500 
0.683674 17.440514 36.720802 -177.457002 6.591681 -157.277211 3.503098 -0.950348 -1.127987 -26.901475 -2.030441 -38.057070 2.881292 15.078899 40.962085 0.727196 9.094058 -31.154069 0.101800 2.057100 5.663600 -6.047490 -0.394388 0.715358 20.173007 9.331344 -50.760843 -12.841159 -21.464102 68.316223 5.904546 -21.958511 -5.468506 -0.001600 -0.254800 0.700000 -0.826451 -0.367385 -4.135152 1.344736 -0.476823 -5.768999 1.387715 -0.000147 -0.062526 -0.270170 -1.028774 -19.329136 4.422386 1.976649 16.584537 -0.531700 2.367400 15.048600 -10.198264 -8.707065 2.906971 -58.689266 -0.384179 70.127900 54.762015 -51.427528 -27.486470 -1.578196 -2.349564 -22.447958 -23.209273 13.428076 -5.787300 -7.125000 0.000000 0.000000 -41.472700 41.389600 4.624000 11.711847 9.827222 4.219101 61.174820 -9.049955 51.112953 -69.200600 52.813074 -40.428080 -1.335805 3.250256 -39.899160 9.326072 5.098620 0.248600 7.125000 0.000000 0.000000 26.159000 -27.719400 12.210800 
0.688048 17.431659 36.688688 -177.504328 6.542162 -157.324406 3.476399 -0.962086 -1.104776 -26.897883 -2.101915 -37.919300 2.877092 15.067702 40.965052 0.670127 9.297494 -31.222854 0.083300 1.861600 5.123400 -5.986669 -0.339211 0.675735 19.599038 9.923519 -51.351216 -12.192186 -21.293135 66.460774 6.167041 -22.760639 -5.892944 -0.011200 0.682000 -1.874100 -0.845427 -0.456539 -3.907596 1.356310 -0.586290 -5.799995 1.390624 -0.051799 -0.284444 -0.225847 -0.883946 -19.279959 4.402774 2.098674 16.417095 -0.562500 2.398200 14.925500 -10.103929 -8.806315 2.879301 -58.930976 -1.013987 70.779406 52.757337 -50.670553 -25.775086 -1.617381 -2.292512 -20.589613 -23.734387 12.927244 -5.771400 -7.125000 0.000000 0.000000 -41.590600 40.914100 5.272600 11.646558 9.906989 4.221918 61.565710 -8.634023 50.588983 -67.404998 52.480595 -38.612371 -1.481859 3.223072 -39.821880 8.667295 6.420800 0.403600 7.125000 0.000000 0.000000 25.507000 -26.601500 12.598300 
0.690716 17.440514 36.649319 -177.246222 6.636801 -157.325056 3.432184 -0.977143 -1.084097 -26.557402 -2.215021 -37.647570 2.845923 15.024438 40.870227 0.685292 9.440158 -31.553458 0.081700 1.843700 5.073900 -5.948233 -0.287417 0.655610 19.180807 10.819757 -51.775524 -11.452374 -21.107256 64.683149 5.739232 -21.433114 -7.673119 -0.017300 -0.849200 2.333900 -0.601968 -0.481935 -3.765263 1.394070 -0.623816 -5.843819 1.402077 -0.060387 -0.570512 -0.208272 -0.694622 -19.030907 4.344714 2.295014 16.219393 -0.612900 2.457000 14.711400 -9.996804 -8.904156 2.851616 -59.280470 -1.511967 71.524371 50.816828 -49.870161 -24.118451 -1.652309 -2.178750 -18.817086 -23.861115 12.906914 -5.794300 -7.125000 0.000000 0.000000 -41.670400 40.827300 5.403700 11.601008 9.964003 4.225842 61.887079 -8.388195 50.113407 -65.624838 52.100204 -36.740310 -1.888928 3.211515 -39.506962 6.737675 10.257427 0.707300 7.125000 0.000000 0.000000 23.693600 -23.360600 13.513600 
